<svg width="70" height="70" viewBox="0 0 70 70" fill="none" xmlns="http://www.w3.org/2000/svg">
<path fill-rule="evenodd" clip-rule="evenodd" d="M35 70C54.33 70 70 54.33 70 35C70 15.67 54.33 0 35 0C20.6236 0 8.27159 8.66784 2.88503 21.0626L12.0151 26.4961C12.9225 27.0347 14.0445 27.0257 14.9586 26.4961C15.7177 26.0562 38.4665 12.6576 38.8073 12.4556C39.4837 12.0563 40.317 12.0461 41.0027 12.4286C41.4643 12.7069 42.6784 13.4145 43.3773 13.8217L43.4593 13.8695C44.1454 14.269 44.1122 15.3732 43.5036 15.7323C43.1712 15.9309 35.0803 20.7002 27.6021 25.1084C21.3865 28.7723 15.5941 32.1867 15.0316 32.5199H15.0338C14.0158 33.1191 13.0088 33.1326 11.9576 32.5266C10.3946 31.6206 4.49216 28.1053 1.14045 26.1045C0.735676 27.6494 0.43384 29.236 0.242708 30.8564L12.0151 37.6678C12.9225 38.1915 14.0445 38.1827 14.9586 37.6678C15.7177 37.2401 38.4665 24.2137 38.8073 24.0173C39.4837 23.6291 40.317 23.6192 41.0027 23.9911C41.4643 24.2617 42.6783 24.9495 43.3772 25.3454L43.4593 25.392C44.1454 25.7804 44.1122 26.8539 43.5036 27.203C43.1712 27.3961 35.0782 32.0341 27.5992 36.3203L27.5743 36.3346C21.3692 39.8907 15.5933 43.2009 15.0316 43.5242H15.0338C14.0158 44.1068 13.0088 44.1199 11.9576 43.5308C10.2035 42.5423 2.98402 38.3587 0.038064 36.6469C0.146384 38.9854 0.484177 41.2638 1.02944 43.4604L12.0151 49.8166C12.9225 50.3402 14.0445 50.3315 14.9585 49.8166C15.7176 49.3889 38.4664 36.3624 38.8073 36.1661C39.4836 35.7779 40.317 35.7679 41.0027 36.1399C41.4645 36.4106 42.6796 37.099 43.3783 37.4948L43.4593 37.5407C44.1453 37.9291 44.1121 39.0026 43.5035 39.3518C43.1711 39.5448 35.0793 44.1822 27.6007 48.4682C21.3856 52.03 15.5941 55.3492 15.0316 55.673H15.0338C14.0157 56.2556 13.0088 56.2687 11.9575 55.6796C10.7665 55.0083 7.05549 52.864 3.87359 51.0206C9.68694 62.2926 21.4434 70 35 70ZM0 35L9.31323e-07 34.9918V35.0082L0 35Z" fill="#E44332"/>
</svg>
